<svg version="1.1" xmlns="http://www.w3.org/2000/svg" xmlns:xlink="http://www.w3.org/1999/xlink" width="560.302734375" height="328"><defs/><g><g transform="translate(-118,-30) scale(1,1)"><rect fill="#C0C0C0" stroke="none" x="135" y="191" width="155.62451171875" height="24" opacity="0.2"/></g><g transform="translate(-118,-30) scale(1,1)"><rect fill="#ffffff" stroke="none" x="128" y="184" width="155.62451171875" height="24"/></g><g transform="translate(-118,-30) scale(1,1)"><path fill="none" stroke="#000000" d="M 128 184 L 283.62451171875 184 L 283.62451171875 208 L 128 208 L 128 184 Z Z" stroke-miterlimit="10"/></g><g transform="translate(-118,-30) scale(1,1)"><rect fill="#ffffff" stroke="none" x="128" y="184" width="155.62451171875" height="24"/></g><g transform="translate(-118,-30) scale(1,1)"><path fill="none" stroke="#000000" d="M 128 184 L 283.62451171875 184 L 283.62451171875 208 L 128 208 L 128 184 Z Z" stroke-miterlimit="10"/></g><g transform="translate(-118,-30) scale(1,1)"><g><path fill="none" stroke="none"/><text fill="#000000" stroke="none" font-family="Arial" font-size="13px" font-style="normal" font-weight="bold" text-decoration="none" x="146.31884765625" y="203.5">all different: Problem</text><path fill="none" stroke="#000000" d="M 270.82177734375 203.5 L 140.802734375 203.5" stroke-miterlimit="10"/></g></g><g transform="translate(-118,-30) scale(1,1)"><rect fill="#C0C0C0" stroke="none" x="383" y="151" width="82.734375" height="24" opacity="0.2"/></g><g transform="translate(-118,-30) scale(1,1)"><rect fill="#ffffff" stroke="none" x="376" y="144" width="82.734375" height="24"/></g><g transform="translate(-118,-30) scale(1,1)"><path fill="none" stroke="#000000" d="M 376 144 L 458.734375 144 L 458.734375 168 L 376 168 L 376 144 Z Z" stroke-miterlimit="10"/></g><g transform="translate(-118,-30) scale(1,1)"><rect fill="#ffffff" stroke="none" x="376" y="144" width="82.734375" height="24"/></g><g transform="translate(-118,-30) scale(1,1)"><path fill="none" stroke="#000000" d="M 376 144 L 458.734375 144 L 458.734375 168 L 376 168 L 376 144 Z Z" stroke-miterlimit="10"/></g><g transform="translate(-118,-30) scale(1,1)"><g><path fill="none" stroke="none"/><text fill="#000000" stroke="none" font-family="Arial" font-size="13px" font-style="normal" font-weight="bold" text-decoration="none" x="386.774658203125" y="163.5">a: Variable</text><path fill="none" stroke="#000000" d="M 449.88623046875 163.5 L 384.84814453125 163.5" stroke-miterlimit="10"/></g></g><g transform="translate(-118,-30) scale(1,1)"><rect fill="#C0C0C0" stroke="none" x="383" y="191" width="83.19775390625" height="24" opacity="0.2"/></g><g transform="translate(-118,-30) scale(1,1)"><rect fill="#ffffff" stroke="none" x="376" y="184" width="83.19775390625" height="24"/></g><g transform="translate(-118,-30) scale(1,1)"><path fill="none" stroke="#000000" d="M 376 184 L 459.19775390625 184 L 459.19775390625 208 L 376 208 L 376 184 Z Z" stroke-miterlimit="10"/></g><g transform="translate(-118,-30) scale(1,1)"><rect fill="#ffffff" stroke="none" x="376" y="184" width="83.19775390625" height="24"/></g><g transform="translate(-118,-30) scale(1,1)"><path fill="none" stroke="#000000" d="M 376 184 L 459.19775390625 184 L 459.19775390625 208 L 376 208 L 376 184 Z Z" stroke-miterlimit="10"/></g><g transform="translate(-118,-30) scale(1,1)"><g><path fill="none" stroke="none"/><text fill="#000000" stroke="none" font-family="Arial" font-size="13px" font-style="normal" font-weight="bold" text-decoration="none" x="387.00634765625" y="203.5">b: Variable</text><path fill="none" stroke="#000000" d="M 450.473388671875 203.5 L 384.724365234375 203.5" stroke-miterlimit="10"/></g></g><g transform="translate(-118,-30) scale(1,1)"><rect fill="#C0C0C0" stroke="none" x="383" y="231" width="81.6552734375" height="24" opacity="0.2"/></g><g transform="translate(-118,-30) scale(1,1)"><rect fill="#ffffff" stroke="none" x="376" y="224" width="81.6552734375" height="24"/></g><g transform="translate(-118,-30) scale(1,1)"><path fill="none" stroke="#000000" d="M 376 224 L 457.6552734375 224 L 457.6552734375 248 L 376 248 L 376 224 Z Z" stroke-miterlimit="10"/></g><g transform="translate(-118,-30) scale(1,1)"><rect fill="#ffffff" stroke="none" x="376" y="224" width="81.6552734375" height="24"/></g><g transform="translate(-118,-30) scale(1,1)"><path fill="none" stroke="#000000" d="M 376 224 L 457.6552734375 224 L 457.6552734375 248 L 376 248 L 376 224 Z Z" stroke-miterlimit="10"/></g><g transform="translate(-118,-30) scale(1,1)"><g><path fill="none" stroke="none"/><text fill="#000000" stroke="none" font-family="Arial" font-size="13px" font-style="normal" font-weight="bold" text-decoration="none" x="386.60009765625" y="243.5">c: Variable</text><path fill="none" stroke="#000000" d="M 449.3466796875 243.5 L 384.30859375 243.5" stroke-miterlimit="10"/></g></g><g transform="translate(-118,-30) scale(1,1)"><rect fill="#C0C0C0" stroke="none" x="567" y="191" width="108.302734375" height="39" opacity="0.2"/></g><g transform="translate(-118,-30) scale(1,1)"><rect fill="#ffffff" stroke="none" x="560" y="184" width="108.302734375" height="39"/></g><g transform="translate(-118,-30) scale(1,1)"><path fill="none" stroke="#000000" d="M 560 184 L 668.302734375 184 L 668.302734375 223 L 560 223 L 560 184 Z Z" stroke-miterlimit="10"/></g><g transform="translate(-118,-30) scale(1,1)"><rect fill="#ffffff" stroke="none" x="560" y="184" width="108.302734375" height="39"/></g><g transform="translate(-118,-30) scale(1,1)"><path fill="none" stroke="#000000" d="M 560 184 L 668.302734375 184 L 668.302734375 223 L 560 223 L 560 184 Z Z" stroke-miterlimit="10"/></g><g transform="translate(-118,-30) scale(1,1)"><g><path fill="none" stroke="none"/><text fill="#000000" stroke="none" font-family="Arial" font-size="13px" font-style="normal" font-weight="bold" text-decoration="none" x="588.141845703125" y="203.5">: Domain</text><path fill="none" stroke="#000000" d="M 641.957275390625 203.5 L 586.345458984375 203.5" stroke-miterlimit="10"/></g></g><g transform="translate(-118,-30) scale(1,1)"><g><path fill="none" stroke="none"/><text fill="#000000" stroke="none" font-family="Arial" font-size="13px" font-style="normal" font-weight="normal" text-decoration="none" x="572.767822265625" y="218.5">values={1,2,3}</text></g></g><g transform="translate(-118,-30) scale(1,1)"><path fill="none" stroke="#000000" d="M 460 166 L 559 190" stroke-miterlimit="10"/></g><g transform="translate(-118,-30) scale(1,1)"><path fill="none" stroke="#000000" d="M 548.1316408743664 191.69669381924334 L 559 190 L 550.1151658567096 183.51465326707813" stroke-miterlimit="10"/></g><g transform="translate(-118,-30) scale(1,1)"><g><path fill="none" stroke="none"/><text fill="#000000" stroke="none" font-family="Arial" font-size="13px" font-style="normal" font-weight="normal" text-decoration="none" x="487.09912109375" y="169.5">+domain</text></g></g><g transform="translate(-118,-30) scale(1,1)"><path fill="none" stroke="#000000" d="M 460 198 L 559 201" stroke-miterlimit="10"/></g><g transform="translate(-118,-30) scale(1,1)"><path fill="none" stroke="#000000" d="M 548.7144853731307 204.8997677957101 L 559 201 L 548.9694906059477 196.48459511274683" stroke-miterlimit="10"/></g><g transform="translate(-118,-30) scale(1,1)"><g><path fill="none" stroke="none"/><text fill="#000000" stroke="none" font-family="Arial" font-size="13px" font-style="normal" font-weight="normal" text-decoration="none" x="484.09912109375" y="190.5">+domain</text></g></g><g transform="translate(-118,-30) scale(1,1)"><path fill="none" stroke="#000000" d="M 459 229 L 559 212" stroke-miterlimit="10"/></g><g transform="translate(-118,-30) scale(1,1)"><path fill="none" stroke="#000000" d="M 549.6865637813497 217.8531962038816 L 559 212 L 548.275571366264 209.55324082102408" stroke-miterlimit="10"/></g><g transform="translate(-118,-30) scale(1,1)"><g><path fill="none" stroke="none"/><text fill="#000000" stroke="none" font-family="Arial" font-size="13px" font-style="normal" font-weight="normal" text-decoration="none" x="481.09912109375" y="211.5">+domain</text></g></g><g transform="translate(-118,-30) scale(1,1)"><path fill="none" stroke="#000000" d="M 274 183 L 375 164" stroke-miterlimit="10"/></g><g transform="translate(-118,-30) scale(1,1)"><path fill="none" stroke="#000000" d="M 365.79074956110935 170.01578809083173 L 375 164 L 364.23427201180687 161.74188111822363" stroke-miterlimit="10"/></g><g transform="translate(-118,-30) scale(1,1)"><g><path fill="none" stroke="none"/><text fill="#000000" stroke="none" font-family="Arial" font-size="13px" font-style="normal" font-weight="normal" text-decoration="none" x="290.9404296875" y="164.5">+variables</text></g></g><g transform="translate(-118,-30) scale(1,1)"><path fill="none" stroke="#000000" d="M 285 196 L 375 196" stroke-miterlimit="10"/></g><g transform="translate(-118,-30) scale(1,1)"><path fill="none" stroke="#000000" d="M 364.83732514237585 200.209517756016 L 375 196 L 364.83732514237585 191.790482243984" stroke-miterlimit="10"/></g><g transform="translate(-118,-30) scale(1,1)"><g><path fill="none" stroke="none"/><text fill="#000000" stroke="none" font-family="Arial" font-size="13px" font-style="normal" font-weight="normal" text-decoration="none" x="299.9404296875" y="187.5">+variables</text></g></g><g transform="translate(-118,-30) scale(1,1)"><path fill="none" stroke="#000000" d="M 274 209 L 375 228" stroke-miterlimit="10"/></g><g transform="translate(-118,-30) scale(1,1)"><path fill="none" stroke="#000000" d="M 364.23427201180687 230.25811888177637 L 375 228 L 365.79074956110935 221.98421190916827" stroke-miterlimit="10"/></g><g transform="translate(-118,-30) scale(1,1)"><g><path fill="none" stroke="none"/><text fill="#000000" stroke="none" font-family="Arial" font-size="13px" font-style="normal" font-weight="normal" text-decoration="none" x="295.9404296875" y="209.5">+variables</text></g></g><g transform="translate(-118,-30) scale(1,1)"><rect fill="#C0C0C0" stroke="none" x="143" y="327" width="96.80078125" height="24" opacity="0.2"/></g><g transform="translate(-118,-30) scale(1,1)"><rect fill="#ffffff" stroke="none" x="136" y="320" width="96.80078125" height="24"/></g><g transform="translate(-118,-30) scale(1,1)"><path fill="none" stroke="#000000" d="M 136 320 L 232.80078125 320 L 232.80078125 344 L 136 344 L 136 320 Z Z" stroke-miterlimit="10"/></g><g transform="translate(-118,-30) scale(1,1)"><rect fill="#ffffff" stroke="none" x="136" y="320" width="96.80078125" height="24"/></g><g transform="translate(-118,-30) scale(1,1)"><path fill="none" stroke="#000000" d="M 136 320 L 232.80078125 320 L 232.80078125 344 L 136 344 L 136 320 Z Z" stroke-miterlimit="10"/></g><g transform="translate(-118,-30) scale(1,1)"><g><path fill="none" stroke="none"/><text fill="#000000" stroke="none" font-family="Arial" font-size="13px" font-style="normal" font-weight="bold" text-decoration="none" x="149.116943359375" y="339.5">: AllDifferent</text><path fill="none" stroke="#000000" d="M 223.400390625 339.5 L 145.400390625 339.5" stroke-miterlimit="10"/></g></g><g transform="translate(-118,-30) scale(1,1)"><path fill="none" stroke="#000000" d="M 201 319 L 400 169" stroke-miterlimit="10"/></g><g transform="translate(-118,-30) scale(1,1)"><path fill="none" stroke="#000000" d="M 394.4183763980726 178.47868545561076 L 400 169 L 389.35075333864955 171.7556388634429" stroke-miterlimit="10"/></g><g transform="translate(-118,-30) scale(1,1)"><g><path fill="none" stroke="none"/><text fill="#000000" stroke="none" font-family="Arial" font-size="13px" font-style="normal" font-weight="normal" text-decoration="none" x="260.917724609375" y="237.5">+variables</text></g></g><g transform="translate(-118,-30) scale(1,1)"><path fill="none" stroke="#000000" d="M 206 319 L 395 209" stroke-miterlimit="10"/></g><g transform="translate(-118,-30) scale(1,1)"><path fill="none" stroke="#000000" d="M 388.3341059217305 217.75019177717218 L 395 209 L 384.09918115226316 210.47382103690558" stroke-miterlimit="10"/></g><g transform="translate(-118,-30) scale(1,1)"><g><path fill="none" stroke="none"/><text fill="#000000" stroke="none" font-family="Arial" font-size="13px" font-style="normal" font-weight="normal" text-decoration="none" x="261.917724609375" y="257.5">+variables</text></g></g><g transform="translate(-118,-30) scale(1,1)"><path fill="none" stroke="#000000" d="M 215 319 L 385 249" stroke-miterlimit="10"/></g><g transform="translate(-118,-30) scale(1,1)"><path fill="none" stroke="#000000" d="M 377.2055702030529 256.7618853470315 L 385 249 L 374.0000240714177 248.9769875987747" stroke-miterlimit="10"/></g><g transform="translate(-118,-30) scale(1,1)"><g><path fill="none" stroke="none"/><text fill="#000000" stroke="none" font-family="Arial" font-size="13px" font-style="normal" font-weight="normal" text-decoration="none" x="263.917724609375" y="276.5">+variables</text></g></g><g transform="translate(-118,-30) scale(1,1)"><path fill="none" stroke="#000000" d="M 410 169 L 344 288 L 231 319" stroke-miterlimit="10"/></g><g transform="translate(-118,-30) scale(1,1)"><path fill="none" stroke="#000000" d="M 239.68689131881655 312.2518210445284 L 231 319 L 241.91424285904006 320.37087665889146" stroke-miterlimit="10"/></g><g transform="translate(-118,-30) scale(1,1)"><g><path fill="none" stroke="none"/><text fill="#000000" stroke="none" font-family="Arial" font-size="13px" font-style="normal" font-weight="normal" text-decoration="none" x="312.10205078125" y="308.5">+constraints</text></g></g><g transform="translate(-118,-30) scale(1,1)"><path fill="none" stroke="#000000" d="M 411 209 L 368 304 L 234 324" stroke-miterlimit="10"/></g><g transform="translate(-118,-30) scale(1,1)"><path fill="none" stroke="#000000" d="M 243.42993336361087 318.33640072411026 L 234 324 L 244.67273928145136 326.66320037364164" stroke-miterlimit="10"/></g><g transform="translate(-118,-30) scale(1,1)"><g><path fill="none" stroke="none"/><text fill="#000000" stroke="none" font-family="Arial" font-size="13px" font-style="normal" font-weight="normal" text-decoration="none" x="335.10205078125" y="324.5">+constraints</text></g></g><g transform="translate(-118,-30) scale(1,1)"><path fill="none" stroke="#000000" d="M 414 249 L 400 328 L 234 331" stroke-miterlimit="10"/></g><g transform="translate(-118,-30) scale(1,1)"><path fill="none" stroke="#000000" d="M 244.08495245874133 326.6075366928195 L 234 331 L 244.23707886214038 335.0251976808995" stroke-miterlimit="10"/></g><g transform="translate(-118,-30) scale(1,1)"><g><path fill="none" stroke="none"/><text fill="#000000" stroke="none" font-family="Arial" font-size="13px" font-style="normal" font-weight="normal" text-decoration="none" x="365.10205078125" y="348.5">+constraints</text></g></g><g transform="translate(-118,-30) scale(1,1)"><rect fill="#C0C0C0" stroke="none" x="375" y="47" width="56.68359375" height="24" opacity="0.2"/></g><g transform="translate(-118,-30) scale(1,1)"><rect fill="#ffffff" stroke="none" x="368" y="40" width="56.68359375" height="24"/></g><g transform="translate(-118,-30) scale(1,1)"><path fill="none" stroke="#000000" d="M 368 40 L 424.68359375 40 L 424.68359375 64 L 368 64 L 368 40 Z Z" stroke-miterlimit="10"/></g><g transform="translate(-118,-30) scale(1,1)"><rect fill="#ffffff" stroke="none" x="368" y="40" width="56.68359375" height="24"/></g><g transform="translate(-118,-30) scale(1,1)"><path fill="none" stroke="#000000" d="M 368 40 L 424.68359375 40 L 424.68359375 64 L 368 64 L 368 40 Z Z" stroke-miterlimit="10"/></g><g transform="translate(-118,-30) scale(1,1)"><g><path fill="none" stroke="none"/><text fill="#000000" stroke="none" font-family="Arial" font-size="13px" font-style="normal" font-weight="bold" text-decoration="none" x="383.332275390625" y="59.5">Bind</text><path fill="none" stroke="#000000" d="M 410.78271484375 59.5 L 381.90087890625 59.5" stroke-miterlimit="10"/></g></g><g transform="translate(-118,-30) scale(1,1)"><path fill="none" stroke="#000000" d="M 379 65 L 222 183" stroke-miterlimit="10"/></g><g transform="translate(-118,-30) scale(1,1)"><path fill="none" stroke="#000000" d="M 227.59478761559714 173.52907863318669 L 222 183 L 232.6530649848455 180.259159539729" stroke-miterlimit="10"/></g><g transform="translate(-118,-30) scale(1,1)"><g><path fill="none" stroke="none"/><text fill="#000000" stroke="none" font-family="Arial" font-size="13px" font-style="normal" font-weight="normal" text-decoration="none" x="281.537109375" y="141.5">+problem</text></g></g><g transform="translate(-118,-30) scale(1,1)"><path fill="none" stroke="#000000" d="M 415 65 L 585 183" stroke-miterlimit="10"/></g><g transform="translate(-118,-30) scale(1,1)"><path fill="none" stroke="#000000" d="M 574.2510772693363 180.6631944603322 L 585 183 L 579.0517348901109 173.74699280328412" stroke-miterlimit="10"/></g><g transform="translate(-118,-30) scale(1,1)"><g><path fill="none" stroke="none"/><text fill="#000000" stroke="none" font-family="Arial" font-size="13px" font-style="normal" font-weight="normal" text-decoration="none" x="480.08642578125" y="117.5">+domains</text></g></g><g transform="translate(-118,-30) scale(1,1)"><path fill="none" stroke="#000000" d="M 426 63 L 520 96 L 596 183" stroke-miterlimit="10"/></g><g transform="translate(-118,-30) scale(1,1)"><path fill="none" stroke="#000000" d="M 586.1438209381653 178.11576676426577 L 596 183 L 592.4843033906722 172.5769545069034" stroke-miterlimit="10"/></g><g transform="translate(-118,-30) scale(1,1)"><g><path fill="none" stroke="none"/><text fill="#000000" stroke="none" font-family="Arial" font-size="13px" font-style="normal" font-weight="normal" text-decoration="none" x="503.08642578125" y="92.5">+domains</text></g></g><g transform="translate(-118,-30) scale(1,1)"><path fill="none" stroke="#000000" d="M 426 58 L 544 80 L 603 183" stroke-miterlimit="10"/></g><g transform="translate(-118,-30) scale(1,1)"><path fill="none" stroke="#000000" d="M 594.2959833217011 176.2739243489317 L 603 183 L 601.6013844868581 172.08927707956988" stroke-miterlimit="10"/></g><g transform="translate(-118,-30) scale(1,1)"><g><path fill="none" stroke="none"/><text fill="#000000" stroke="none" font-family="Arial" font-size="13px" font-style="normal" font-weight="normal" text-decoration="none" x="529.08642578125" y="78.5">+domains</text></g></g></g></svg>