<svg version="1.1" xmlns="http://www.w3.org/2000/svg" xmlns:xlink="http://www.w3.org/1999/xlink" width="488.18359375" height="360"><defs/><g><g transform="translate(-121,-166) scale(1,1)"><rect fill="#C0C0C0" stroke="none" x="197" y="183" width="66.4462890625" height="44" opacity="0.2"/></g><g transform="translate(-121,-166) scale(1,1)"><rect fill="#ffffff" stroke="none" x="190" y="176" width="66.4462890625" height="44"/></g><g transform="translate(-121,-166) scale(1,1)"><path fill="none" stroke="#000000" d="M 190 176 L 256.4462890625 176 L 256.4462890625 220 L 190 220 L 190 176 Z Z" stroke-miterlimit="10"/></g><g transform="translate(-121,-166) scale(1,1)"><path fill="none" stroke="#000000" d="M 190 201 L 256.4462890625 201" stroke-miterlimit="10"/></g><g transform="translate(-121,-166) scale(1,1)"><path fill="none" stroke="#000000" d="M 190 211 L 256.4462890625 211" stroke-miterlimit="10"/></g><g transform="translate(-121,-166) scale(1,1)"><g><path fill="none" stroke="none"/><text fill="#000000" stroke="none" font-family="Arial" font-size="13px" font-style="normal" font-weight="bold" text-decoration="none" x="199.01953125" y="195.5">Problem</text></g></g><g transform="translate(-121,-166) scale(1,1)"><rect fill="#C0C0C0" stroke="none" x="367" y="183" width="50.919921875" height="44" opacity="0.2"/></g><g transform="translate(-121,-166) scale(1,1)"><rect fill="#ffffff" stroke="none" x="360" y="176" width="50.919921875" height="44"/></g><g transform="translate(-121,-166) scale(1,1)"><path fill="none" stroke="#000000" d="M 360 176 L 410.919921875 176 L 410.919921875 220 L 360 220 L 360 176 Z Z" stroke-miterlimit="10"/></g><g transform="translate(-121,-166) scale(1,1)"><path fill="none" stroke="#000000" d="M 360 201 L 410.919921875 201" stroke-miterlimit="10"/></g><g transform="translate(-121,-166) scale(1,1)"><path fill="none" stroke="#000000" d="M 360 211 L 410.919921875 211" stroke-miterlimit="10"/></g><g transform="translate(-121,-166) scale(1,1)"><g><path fill="none" stroke="none"/><text fill="#000000" stroke="none" font-family="Arial" font-size="13px" font-style="normal" font-weight="bold" text-decoration="none" x="372.450439453125" y="195.5">Bind</text></g></g><g transform="translate(-121,-166) scale(1,1)"><rect fill="#C0C0C0" stroke="none" x="367" y="351" width="62.0537109375" height="44" opacity="0.2"/></g><g transform="translate(-121,-166) scale(1,1)"><rect fill="#ffffff" stroke="none" x="360" y="344" width="62.0537109375" height="44"/></g><g transform="translate(-121,-166) scale(1,1)"><path fill="none" stroke="#000000" d="M 360 344 L 422.0537109375 344 L 422.0537109375 388 L 360 388 L 360 344 Z Z" stroke-miterlimit="10"/></g><g transform="translate(-121,-166) scale(1,1)"><path fill="none" stroke="#000000" d="M 360 369 L 422.0537109375 369" stroke-miterlimit="10"/></g><g transform="translate(-121,-166) scale(1,1)"><path fill="none" stroke="#000000" d="M 360 379 L 422.0537109375 379" stroke-miterlimit="10"/></g><g transform="translate(-121,-166) scale(1,1)"><g><path fill="none" stroke="none"/><text fill="#000000" stroke="none" font-family="Arial" font-size="13px" font-style="normal" font-weight="bold" text-decoration="none" x="368.629150390625" y="363.5">Domain</text></g></g><g transform="translate(-121,-166) scale(1,1)"><path fill="none" stroke="#000000" d="M 359 198 L 257 198" stroke-miterlimit="10"/></g><g transform="translate(-121,-166) scale(1,1)"><path fill="none" stroke="#000000" d="M 267.16267485762415 193.790482243984 L 257 198 L 267.16267485762415 202.209517756016" stroke-miterlimit="10"/></g><g transform="translate(-121,-166) scale(1,1)"><g><path fill="none" stroke="none"/><text fill="#000000" stroke="none" font-family="Arial" font-size="13px" font-style="normal" font-weight="normal" text-decoration="none" x="279.537109375" y="219.5">+problem</text></g></g><g transform="translate(-121,-166) scale(1,1)"><rect fill="#C0C0C0" stroke="none" x="198" y="351" width="64.97998046875" height="44" opacity="0.2"/></g><g transform="translate(-121,-166) scale(1,1)"><rect fill="#ffffff" stroke="none" x="191" y="344" width="64.97998046875" height="44"/></g><g transform="translate(-121,-166) scale(1,1)"><path fill="none" stroke="#000000" d="M 191 344 L 255.97998046875 344 L 255.97998046875 388 L 191 388 L 191 344 Z Z" stroke-miterlimit="10"/></g><g transform="translate(-121,-166) scale(1,1)"><path fill="none" stroke="#000000" d="M 191 369 L 255.97998046875 369" stroke-miterlimit="10"/></g><g transform="translate(-121,-166) scale(1,1)"><path fill="none" stroke="#000000" d="M 191 379 L 255.97998046875 379" stroke-miterlimit="10"/></g><g transform="translate(-121,-166) scale(1,1)"><g><path fill="none" stroke="none"/><text fill="#000000" stroke="none" font-family="Arial" font-size="13px" font-style="normal" font-weight="bold" text-decoration="none" x="200.124267578125" y="363.5">Variable</text></g></g><g transform="translate(-121,-166) scale(1,1)"><path fill="none" stroke="#000000" d="M 256 368 L 360 368" stroke-miterlimit="10"/></g><g transform="translate(-121,-166) scale(1,1)"><path fill="none" stroke="#000000" d="M 349.83732514237585 372.209517756016 L 360 368 L 349.83732514237585 363.790482243984" stroke-miterlimit="10"/></g><g transform="translate(-121,-166) scale(1,1)"><g><path fill="none" stroke="none"/><text fill="#000000" stroke="none" font-family="Arial" font-size="13px" font-style="normal" font-weight="normal" text-decoration="none" x="298.09912109375" y="364.5">+domain</text></g></g><g transform="translate(-121,-166) scale(1,1)"><path fill="none" stroke="#000000" d="M 223 221 L 223 343" stroke-miterlimit="10"/></g><g transform="translate(-121,-166) scale(1,1)"><path fill="none" stroke="#000000" d="M 218.790482243984 332.83732514237585 L 223 343 L 227.209517756016 332.83732514237585" stroke-miterlimit="10"/></g><g transform="translate(-121,-166) scale(1,1)"><path fill="#000000" stroke="none" d="M 227.209517756016 231.16267485762415 L 223 221 L 218.790482243984 231.16267485762415 L 223 243"/></g><g transform="translate(-121,-166) scale(1,1)"><path fill="none" stroke="#000000" d="M 227.209517756016 231.16267485762415 L 223 221 L 218.790482243984 231.16267485762415 L 223 243 L 227.209517756016 231.16267485762415" stroke-miterlimit="10"/></g><g transform="translate(-121,-166) scale(1,1)"><g><path fill="none" stroke="none"/><text fill="#000000" stroke="none" font-family="Arial" font-size="13px" font-style="normal" font-weight="normal" text-decoration="none" x="232.9404296875" y="287.5">+variables</text></g></g><g transform="translate(-121,-166) scale(1,1)"><g><path fill="none" stroke="none"/><text fill="#000000" stroke="none" font-family="Arial" font-size="13px" font-style="normal" font-weight="normal" text-decoration="none" x="232.190673828125" y="319.5">{ordered}</text></g></g><g transform="translate(-121,-166) scale(1,1)"><g><path fill="none" stroke="none"/><text fill="#000000" stroke="none" font-family="Arial" font-size="13px" font-style="normal" font-weight="normal" text-decoration="none" x="207.007568359375" y="327.5">*</text></g></g><g transform="translate(-121,-166) scale(1,1)"><rect fill="#C0C0C0" stroke="none" x="190" y="479" width="80.36669921875" height="44" opacity="0.2"/></g><g transform="translate(-121,-166) scale(1,1)"><rect fill="#ffffff" stroke="none" x="183" y="472" width="80.36669921875" height="44"/></g><g transform="translate(-121,-166) scale(1,1)"><path fill="none" stroke="#000000" d="M 183 472 L 263.36669921875 472 L 263.36669921875 516 L 183 516 L 183 472 Z Z" stroke-miterlimit="10"/></g><g transform="translate(-121,-166) scale(1,1)"><path fill="none" stroke="#000000" d="M 183 497 L 263.36669921875 497" stroke-miterlimit="10"/></g><g transform="translate(-121,-166) scale(1,1)"><path fill="none" stroke="#000000" d="M 183 507 L 263.36669921875 507" stroke-miterlimit="10"/></g><g transform="translate(-121,-166) scale(1,1)"><g><path fill="none" stroke="none"/><text fill="#000000" stroke="none" font-family="Arial" font-size="13px" font-style="normal" font-weight="bold" text-decoration="none" x="193.558837890625" y="491.5">Constraint</text></g></g><g transform="translate(-121,-166) scale(1,1)"><path fill="none" stroke="#000000" d="M 208 388 L 208 472" stroke-miterlimit="10"/></g><g transform="translate(-121,-166) scale(1,1)"><path fill="none" stroke="#000000" d="M 203.790482243984 461.83732514237585 L 208 472 L 212.209517756016 461.83732514237585" stroke-miterlimit="10"/></g><g transform="translate(-121,-166) scale(1,1)"><g><path fill="none" stroke="none"/><text fill="#000000" stroke="none" font-family="Arial" font-size="13px" font-style="normal" font-weight="normal" text-decoration="none" x="135.10205078125" y="435.5">+constraints</text></g></g><g transform="translate(-121,-166) scale(1,1)"><g><path fill="none" stroke="none"/><text fill="#000000" stroke="none" font-family="Arial" font-size="13px" font-style="normal" font-weight="normal" text-decoration="none" x="190.92822265625" y="456.5">+</text></g></g><g transform="translate(-121,-166) scale(1,1)"><path fill="none" stroke="#000000" d="M 240 472 L 240 388" stroke-miterlimit="10"/></g><g transform="translate(-121,-166) scale(1,1)"><path fill="none" stroke="#000000" d="M 244.209517756016 398.16267485762415 L 240 388 L 235.790482243984 398.16267485762415" stroke-miterlimit="10"/></g><g transform="translate(-121,-166) scale(1,1)"><g><path fill="none" stroke="none"/><text fill="#000000" stroke="none" font-family="Arial" font-size="13px" font-style="normal" font-weight="normal" text-decoration="none" x="240.9404296875" y="434.5">+variables</text></g></g><g transform="translate(-121,-166) scale(1,1)"><g><path fill="none" stroke="none"/><text fill="#000000" stroke="none" font-family="Arial" font-size="13px" font-style="normal" font-weight="normal" text-decoration="none" x="249.007568359375" y="415.5">*</text></g></g><g transform="translate(-121,-166) scale(1,1)"><path fill="none" stroke="#000000" d="M 412 198 L 535 198" stroke-miterlimit="10"/></g><g transform="translate(-121,-166) scale(1,1)"><path fill="none" stroke="#000000" d="M 524.8373251423759 202.209517756016 L 535 198 L 524.8373251423758 193.790482243984" stroke-miterlimit="10"/></g><g transform="translate(-121,-166) scale(1,1)"><g><path fill="none" stroke="none"/><text fill="#000000" stroke="none" font-family="Arial" font-size="13px" font-style="normal" font-weight="normal" text-decoration="none" x="450.12158203125" y="189.5">+values</text></g></g><g transform="translate(-121,-166) scale(1,1)"><g><path fill="none" stroke="none"/><text fill="#000000" stroke="none" font-family="Arial" font-size="13px" font-style="normal" font-weight="normal" text-decoration="none" x="455.190673828125" y="212.5">{ordered}</text></g></g><g transform="translate(-121,-166) scale(1,1)"><g><path fill="none" stroke="none"/><text fill="#000000" stroke="none" font-family="Arial" font-size="13px" font-style="normal" font-weight="normal" text-decoration="none" x="510.007568359375" y="216.5">*</text></g></g><g transform="translate(-121,-166) scale(1,1)"><rect fill="#C0C0C0" stroke="none" x="543" y="183" width="63.18359375" height="44" opacity="0.2"/></g><g transform="translate(-121,-166) scale(1,1)"><rect fill="#ffffff" stroke="none" x="536" y="176" width="63.18359375" height="44"/></g><g transform="translate(-121,-166) scale(1,1)"><path fill="none" stroke="#000000" d="M 536 176 L 599.18359375 176 L 599.18359375 220 L 536 220 L 536 176 Z Z" stroke-miterlimit="10"/></g><g transform="translate(-121,-166) scale(1,1)"><path fill="none" stroke="#000000" d="M 536 201 L 599.18359375 201" stroke-miterlimit="10"/></g><g transform="translate(-121,-166) scale(1,1)"><path fill="none" stroke="#000000" d="M 536 211 L 599.18359375 211" stroke-miterlimit="10"/></g><g transform="translate(-121,-166) scale(1,1)"><g><path fill="none" stroke="none"/><text fill="#000000" stroke="none" font-family="Arial" font-size="13px" font-style="normal" font-weight="bold" text-decoration="none" x="550.25" y="195.5">BitSet</text></g></g></g></svg>